# xmcd CD database file
#
# Track frame offsets:
#	150
#	10694
#	20305
#	32720
#	49459
#	64499
#	86242
#	99974
#	119658
#	129271
#	142730
#	158884
#	171658
#	188166
#	201952
#	215376
#	228516
#	239424
#	254375
#	265106
#	285203
#	297485
#	312138
#	330035
#	342078
#
# Disc length: 4723 seconds
#
# Revision: 0
# Processed by: cddbd v1.5.2PL0 Copyright (c) Steve Scherf et al.
# Submitted via: CDex 1.51
#
DISCID=68127119
DTITLE=Chet Baker - The Ultimate CD 1
DYEAR=2012
DGENRE=Jazz
TTITLE0=My Funny Valentine
TTITLE1=Embraceable You
TTITLE2=Time After Time
TTITLE3=Let's Get Lost
TTITLE4=I Fall In Love Too Easily
TTITLE5=You Don't Know What Love Is
TTITLE6=That Old Feeling
TTITLE7=My Ideal
TTITLE8=Come Rain Or Come Shine
TTITLE9=There Will Never Be Another You
TTITLE10=It's Always You 
TTITLE11=The Thrill Is Gone
TTITLE12=Grey December
TTITLE13=But Not For Me 
TTITLE14=I Get Along Without You Very Well
TTITLE15=There's A Lull In My Life
TTITLE16=Like Someone In Love
TTITLE17=My Buddy
TTITLE18=The Night We Called It A Day
TTITLE19=I've Never Been In Love Before 
TTITLE20=Just Friends
TTITLE21=I Remember You
TTITLE22=Long Ago (And Far Away)
TTITLE23=Look For The Silver Lining
TTITLE24=Daybreak
EXTD=YEAR: 2012
EXTT0=
EXTT1=
EXTT2=
EXTT3=
EXTT4=
EXTT5=
EXTT6=
EXTT7=
EXTT8=
EXTT9=
EXTT10=
EXTT11=
EXTT12=
EXTT13=
EXTT14=
EXTT15=
EXTT16=
EXTT17=
EXTT18=
EXTT19=
EXTT20=
EXTT21=
EXTT22=
EXTT23=
EXTT24=
PLAYORDER=
